<svg xmlns="http://www.w3.org/2000/svg" viewBox="0 0 512 512" role="img" aria-labelledby="title description">
  <title id="title">Raghav Learning</title>
  <desc id="description">An open book with a sun and colorful learning shapes.</desc>
  <rect width="512" height="512" fill="#f5c84b"/>
  <rect x="22" y="22" width="468" height="468" rx="94" fill="none" stroke="#17324d" stroke-width="22"/>
  <circle cx="256" cy="140" r="54" fill="#fff4ba" stroke="#17324d" stroke-width="16"/>
  <path d="M256 70v-30M206 90l-22-24M306 90l22-24M186 140h-31M326 140h31" fill="none" stroke="#17324d" stroke-linecap="round" stroke-width="16"/>
  <path d="M92 210c58-17 114-5 164 37v194c-49-38-104-51-164-34z" fill="#fffdf4" stroke="#17324d" stroke-linejoin="round" stroke-width="18"/>
  <path d="M420 210c-58-17-114-5-164 37v194c49-38 104-51 164-34z" fill="#d9e9e5" stroke="#17324d" stroke-linejoin="round" stroke-width="18"/>
  <path d="M256 247v194" fill="none" stroke="#17324d" stroke-linecap="round" stroke-width="18"/>
  <path d="M130 282c31-5 59 1 84 18M130 329c31-5 59 1 84 18M382 282c-31-5-59 1-84 18M382 329c-31-5-59 1-84 18" fill="none" stroke="#3978bd" stroke-linecap="round" stroke-width="15"/>
  <circle cx="118" cy="118" r="17" fill="#ed5b4f" stroke="#17324d" stroke-width="9"/>
  <path d="M394 94l9 19 21 3-15 15 4 21-19-10-19 10 4-21-15-15 21-3z" fill="#128b82" stroke="#17324d" stroke-linejoin="round" stroke-width="8"/>
</svg>
